<svg xmlns="http://www.w3.org/2000/svg" viewBox="0 0 32 32" fill="none">
  <rect width="32" height="32" rx="6" fill="#0066ff"/>
  <g transform="translate(8, 6)">
    <!-- Scales of Justice -->
    <path d="M8 2 L8 18 M8 18 C8 18 6 20 6 22 C6 24 8 24 8 24 C8 24 10 24 10 22 C10 20 8 18 8 18 Z" 
          fill="none" stroke="white" stroke-width="1.5" stroke-linecap="round"/>
    <path d="M8 2 L4 6 L8 8 L12 6 Z" 
          fill="white" stroke="white" stroke-width="0.5" stroke-linejoin="round"/>
    <!-- Right Scale -->
    <path d="M12 6 L14 4 L16 6 M12 6 L14 8 L16 6" 
          fill="none" stroke="white" stroke-width="1.2" stroke-linecap="round" stroke-linejoin="round"/>
    <circle cx="14" cy="6" r="0.8" fill="white"/>
    <!-- Left Scale -->
    <path d="M4 6 L2 4 L0 6 M4 6 L2 8 L0 6" 
          fill="none" stroke="white" stroke-width="1.2" stroke-linecap="round" stroke-linejoin="round"/>
    <circle cx="2" cy="6" r="0.8" fill="white"/>
    <!-- Base -->
    <rect x="6" y="22" width="4" height="2" fill="white"/>
  </g>
</svg>
